<svg width="64" height="64" viewBox="0 0 64 64" fill="none" xmlns="http://www.w3.org/2000/svg">
  <rect x="6" y="12" width="52" height="40" rx="6" fill="#1E1E2F" stroke="url(#paint0_linear)" stroke-width="4"/>
  <path d="M20 52V60" stroke="#4B5563" stroke-width="4" stroke-linecap="round"/>
  <path d="M44 52V60" stroke="#4B5563" stroke-width="4" stroke-linecap="round"/>
  <path d="M12 60H52" stroke="#4B5563" stroke-width="4" stroke-linecap="round"/>
  <path d="M20 28C20 26.8954 20.8954 26 22 26H42C43.1046 26 44 26.8954 44 28V38C44 39.1046 43.1046 40 42 40H22C20.8954 40 20 39.1046 20 38V28Z" fill="url(#paint1_linear)"/>
  <path d="M26 33.5C28 31 30.5 35 32 33.5C33.5 32 35.5 29 38 34" stroke="white" stroke-width="2.5" stroke-linecap="round" stroke-linejoin="round"/>
  <circle cx="28" cy="30" r="1.5" fill="white"/>
  <defs>
    <linearGradient id="paint0_linear" x1="6" y1="12" x2="58" y2="52" gradientUnits="userSpaceOnUse">
      <stop stop-color="#A855F7"/>
      <stop offset="1" stop-color="#3B82F6"/>
    </linearGradient>
    <linearGradient id="paint1_linear" x1="20" y1="26" x2="44" y2="40" gradientUnits="userSpaceOnUse">
      <stop stop-color="#EC4899"/>
      <stop offset="1" stop-color="#8B5CF6"/>
    </linearGradient>
  </defs>
</svg>
